<svg width="24" height="24" viewBox="0 0 20 14" fill="currentColor" xmlns="http://www.w3.org/2000/svg">
    <path d="M9.99998 0.75C5.83331 0.75 2.27498 3.34167 0.833313 7C2.27498 10.6583 5.83331 13.25 9.99998 13.25C14.1666 13.25 17.725 10.6583 19.1666 7C17.725 3.34167 14.1666 0.75 9.99998 0.75ZM9.99998 11.1667C7.69998 11.1667 5.83331 9.3 5.83331 7C5.83331 4.7 7.69998 2.83333 9.99998 2.83333C12.3 2.83333 14.1666 4.7 14.1666 7C14.1666 9.3 12.3 11.1667 9.99998 11.1667ZM9.99998 4.5C8.61665 4.5 7.49998 5.61667 7.49998 7C7.49998 8.38333 8.61665 9.5 9.99998 9.5C11.3833 9.5 12.5 8.38333 12.5 7C12.5 5.61667 11.3833 4.5 9.99998 4.5Z"
          fill="black" fill-opacity="0.56"/>
</svg>
